<mxfile host="app.diagrams.net" modified="2024-03-22T12:19:47.056Z" agent="Mozilla/5.0 (Windows NT 10.0; Win64; x64) AppleWebKit/537.36 (KHTML, like Gecko) Chrome/123.0.0.0 Safari/537.36" version="24.0.7" etag="pUJOrGtn_mrD2qPe-pzS" type="github">
  <diagram name="Page-1" id="TbD-sSg4fWLNQLqQVL4H">
    <mxGraphModel>
      <root>
        <mxCell id="0" />
        <mxCell id="1" parent="0" />
      </root>
    </mxGraphModel>
  </diagram>
</mxfile>
